nColumns=19
nRows=71
DataType=double
version=3
OpenSimVersion=4.1
endheader
time	ground_force_1_vx	ground_force_1_vy	ground_force_1_vz	ground_force_1_px	ground_force_1_py	ground_force_1_pz	ground_force_1_mx	ground_force_1_my	ground_force_1_mz	ground_force_2_vx	ground_force_2_vy	ground_force_2_vz	ground_force_2_px	ground_force_2_py	ground_force_2_pz	ground_force_2_mx	ground_force_2_my	ground_force_2_mz
0	0	0	0	0.413652	0	-0.229379	0	0	0	0	0	0	0.950624	0	-0.367706	0	0	0
0.005	0	0	0	0.396731	0	-0.228115	0	0	0	0	0	0	0.980832	0	-0.368032	0	0	0
0.01	0	0	0	0.380916	0	-0.226701	0	0	0	0	0	0	1.0115	0	-0.368886	0	0	0
0.015	0	0	0	0.365555	0	-0.22496	0	0	0	0	0	0	1.04147	0	-0.369849	0	0	0
0.02	0	0	0	0.350432	0	-0.222536	0	0	0	0	0	0	1.0711	0	-0.3714	0	0	0
0.025	0	0	0	0.335265	0	-0.219386	0	0	0	0	0	0	1.10019	0	-0.373516	0	0	0
0.03	0	0	0	0.320412	0	-0.216364	0	0	0	0	0	0	1.12801	0	-0.37612	0	0	0
0.035	0	0	0	0.30614	0	-0.213736	0	0	0	0	0	0	1.1552	0	-0.379468	0	0	0
0.04	0	0	0	0.290182	0	-0.211126	0	0	0	0	0	0	1.181	0	-0.383713	0	0	0
0.045	0	0	0	0.274582	0	-0.209829	0	0	0	0	0	0	1.20535	0	-0.388636	0	0	0
0.05	0	0	0	0.260531	0	-0.2087	0	0	0	0	0	0	1.22783	0	-0.394078	0	0	0
0.055	0	0	0	0.249527	0	-0.20742	0	0	0	0	0	0	1.24814	0	-0.399699	0	0	0
0.06	0	0	0	0.239717	0	-0.206241	0	0	0	0	0	0	1.26623	0	-0.405215	0	0	0
0.065	0	0	0	0.230354	0	-0.20591	0	0	0	0	0	0	1.28202	0	-0.410939	0	0	0
0.07	0	0	0	0.221155	0	-0.205808	0	0	0	0	0	0	1.29561	0	-0.415163	0	0	0
0.075	0	0	0	0.215224	0	-0.206321	0	0	0	0	0	0	1.30671	0	-0.418189	0	0	0
0.08	0	0	0	0.205112	0	-0.206559	0	0	0	0	0	0	1.31531	0	-0.420616	0	0	0
0.085	0	0	0	0.199188	0	-0.207968	0	0	0	0	0	0	1.32184	0	-0.421491	0	0	0
0.09	0	0	0	0.192916	0	-0.208694	0	0	0	0	0	0	1.32595	0	-0.421631	0	0	0
0.095	0	0	0	0.188068	0	-0.210072	0	0	0	0	0	0	1.32822	0	-0.420705	0	0	0
0.1	0	0	0	0.184197	0	-0.212042	0	0	0	0	0	0	1.3286	0	-0.419059	0	0	0
0.105	0	0	0	0.182369	0	-0.213905	0	0	0	0	0	0	1.32737	0	-0.416649	0	0	0
0.11	0	0	0	0.181736	0	-0.21597	0	0	0	0	0	0	1.32427	0	-0.414034	0	0	0
0.115	0	0	0	0.182572	0	-0.217995	0	0	0	0	0	0	1.31917	0	-0.411386	0	0	0
0.12	0	0	0	0.184448	0	-0.220398	0	0	0	0	0	0	1.31226	0	-0.408758	0	0	0
0.125	0	0	0	0.18805	0	-0.22269	0	0	0	0	0	0	1.3036	0	-0.406121	0	0	0
0.13	0	0	0	0.193521	0	-0.224554	0	0	0	0	0	0	1.29324	0	-0.403357	0	0	0
0.135	0	0	0	0.200739	0	-0.22546	0	0	0	0	0	0	1.28133	0	-0.400387	0	0	0
0.14	0	0	0	0.211619	0	-0.227615	0	0	0	-30.7505	50.6959	-3.27965	1.26826	0	-0.397432	0	-3.99508	0
0.145	0	0	0	0.218391	0	-0.228855	0	0	0	-78.7374	190.567	12.4203	1.11001	0	-0.439541	0	-7.06144	0
0.15	0	0	0	0.228836	0	-0.229932	0	0	0	-141.73	413.302	50.373	1.07176	0	-0.436477	0	-7.94437	0
0.155	0	0	0	0.240185	0	-0.230853	0	0	0	-201.39	701.768	114.612	1.07397	0	-0.420831	0	-3.86033	0
0.16	0	0	0	0.252349	0	-0.23158	0	0	0	-237.28	1007.06	190.134	1.07513	0	-0.407133	0	4.05962	0
0.165	0	0	0	0.265323	0	-0.232106	0	0	0	-247.987	1287.68	243.366	1.07439	0	-0.396112	0	6.90594	0
0.17	0	0	0	0.279042	0	-0.232423	0	0	0	-263.912	1522.72	245.551	1.06672	0	-0.388035	0	-2.73686	0
0.175	0	0	0	0.293478	0	-0.23251	0	0	0	-307.68	1700.59	189.056	1.05488	0	-0.383123	0	-16.4257	0
0.18	0	0	0	0.308525	0	-0.232537	0	0	0	-366.695	1822.12	96.0834	1.0476	0	-0.380547	0	-19.7336	0
0.185	0	0	0	0.32444	0	-0.232599	0	0	0	-425.288	1909.85	4.51728	1.04422	0	-0.379198	0	-11.7528	0
0.19	0	0	0	0.340869	0	-0.232733	0	0	0	-474.041	1988.76	-54.4731	1.0385	0	-0.378093	0	-1.08511	0
0.195	0	0	0	0.358011	0	-0.233019	0	0	0	-497.695	2073.06	-68.0329	1.02887	0	-0.377036	0	2.95969	0
0.2	0	0	0	0.37575	0	-0.233661	0	0	0	-491.18	2165.59	-39.3765	1.01392	0	-0.376345	0	0.280136	0
0.205	0	0	0	0.394247	0	-0.234266	0	0	0	-462.412	2255.11	15.6917	0.9925	0	-0.37662	0	-0.564385	0
0.21	0	0	0	0.413523	0	-0.235429	0	0	0	-418.273	2324.55	76.8001	0.968277	0	-0.37796	0	3.39402	0
0.215	0	0	0	0.433364	0	-0.235464	0	0	0	-368.99	2370.08	127.026	0.944727	0	-0.379698	0	7.92155	0
0.22	0	0	0	0.453652	0	-0.23735	0	0	0	-324.525	2399.56	158.264	0.92322	0	-0.380956	0	9.17584	0
0.225	0	0	0	0.474108	0	-0.238497	0	0	0	-284.709	2418.85	175.088	0.903944	0	-0.381382	0	6.57984	0
0.23	0	0	0	0.495525	0	-0.239243	0	0	0	-246.756	2429.53	186.229	0.885413	0	-0.381197	0	2.53335	0
0.235	0	0	0	0.517408	0	-0.240041	0	0	0	-208.676	2430.68	194.101	0.865932	0	-0.380765	0	-1.70436	0
0.24	0	0	0	0.539767	0	-0.240823	0	0	0	-165.168	2423.16	192.682	0.845477	0	-0.380289	0	-7.39259	0
0.245	0	0	0	0.562896	0	-0.241169	0	0	0	-112.722	2409.47	173.455	0.825029	0	-0.379775	0	-13.0773	0
0.25	0	0	0	0.586356	0	-0.241804	0	0	0	-52.8179	2386.94	132.5	0.80492	0	-0.379444	0	-11.7185	0
0.255	0	0	0	0.61094	0	-0.242236	0	0	0	11.5215	2348.1	77.8774	0.784428	0	-0.37949	0	1.05931	0
0.26	0	0	0	0.635751	0	-0.242706	0	0	0	76.8038	2291.55	26.4945	0.76392	0	-0.379472	0	20.7114	0
0.265	0	0	0	0.661538	0	-0.243145	0	0	0	136.953	2222.8	-5.27909	0.745632	0	-0.37842	0	35.7273	0
0.27	0	0	0	0.687731	0	-0.243585	0	0	0	184.898	2141.88	-9.15801	0.730875	0	-0.375974	0	35.1611	0
0.275	0	0	0	0.714336	0	-0.243718	0	0	0	217.968	2039.74	13.1637	0.717836	0	-0.372776	0	17.6031	0
0.28	0	0	0	0.742155	0	-0.243582	0	0	0	240.83	1910.32	51.5467	0.703782	0	-0.369772	0	-8.6992	0
0.285	0	0	0	0.769622	0	-0.243542	0	0	0	260.324	1757.83	91.8967	0.68843	0	-0.367217	0	-34.2779	0
0.29	0	0	0	0.79746	0	-0.243692	0	0	0	278.74	1589.71	114.11	0.672511	0	-0.365353	0	-50.2332	0
0.295	0	0	0	0.825556	0	-0.243632	0	0	0	295.166	1408.4	98.7909	0.654175	0	-0.364961	0	-48.1742	0
0.3	0	0	0	0.853899	0	-0.243529	0	0	0	310.949	1214.1	41.6726	0.629466	0	-0.367193	0	-23.9011	0
0.305	0	0	0	0.882413	0	-0.243209	0	0	0	326.586	1009.11	-39.0125	0.592895	0	-0.372713	0	18.6998	0
0.31	0	0	0	0.910848	0	-0.24281	0	0	0	336.896	799.078	-110.176	0.539905	0	-0.380972	0	65.7952	0
0.315	0	0	0	0.939412	0	-0.24243	0	0	0	332.481	590.248	-141.144	0.468124	0	-0.389979	0	96.1372	0
0.32	0	0	0	0.967948	0	-0.241873	0	0	0	305.169	392.098	-120.73	0.379618	0	-0.396936	0	91.6563	0
0.325	0	0	0	0.996594	0	-0.241169	0	0	0	254.436	220.199	-62.1349	0.290093	0	-0.3978	0	48.3268	0
0.33	0	0	0	1.02439	0	-0.2404	0	0	0	188.173	94.0897	1.91404	0.439391	0	-0.373974	0	-10.7351	0
0.335	0	0	0	1.05232	0	-0.239789	0	0	0	119.456	18.4124	37.634	0.4378	0	-0.372485	0	-45.2135	0
0.34	0	0	0	1.07954	0	-0.239012	0	0	0	0	0	0	0.420663	0	-0.37269	0	0	0
0.345	0	0	0	1.10617	0	-0.238086	0	0	0	0	0	0	0.404345	0	-0.374019	0	0	0
0.35	0	0	0	1.13218	0	-0.237102	0	0	0	0	0	0	0.388669	0	-0.375402	0	0	0
